# xmcd
#
# Track frame offsets: 
#        150
#        14675
#        26500
#        37887
#        50775
#        61125
#        74437
#        85925
#        99412
#        111575
#        125175
#        136862
#        150775
#        163375
#        175550
#        189237
#
# Disc length: 2706 seconds
#
# Revision: 1
# Processed by: cddbd v1.5.2PL0 Copyright (c) Steve Scherf et al.
# Submitted via: ExactAudioCopyFreeDBPlugin 1.0
#
DISCID=d50a9010
DTITLE=劉韻 - 金光燦爛耀舞台 CD4 - 劉韻
DYEAR=1997
DGENRE=Oldies
TTITLE0=姑娘十八一朵花
TTITLE1=送哥行
TTITLE2=初一到十五
TTITLE3=有一個儍姑娘
TTITLE4=葬花
TTITLE5=打鑼打鼓
TTITLE6=知道不知道
TTITLE7=加多一點點
TTITLE8=山前山後百花開
TTITLE9=九個郎
TTITLE10=賣餛飩
TTITLE11=何必去燒香
TTITLE12=偷偷摸摸
TTITLE13=穿短裙的小姐
TTITLE14=十七八的姑娘
TTITLE15=採紅菱
EXTD=
EXTT0=
EXTT1=
EXTT2=
EXTT3=
EXTT4=
EXTT5=
EXTT6=
EXTT7=
EXTT8=
EXTT9=
EXTT10=
EXTT11=
EXTT12=
EXTT13=
EXTT14=
EXTT15=
PLAYORDER=
